<svg id="Layer_1" data-name="Layer 1" xmlns="http://www.w3.org/2000/svg" viewBox="0 0 973.45 185.65"><defs><style>.cls-1{fill:#fff;}</style></defs><title>Nvest bank logo white</title><path class="cls-1" d="M7,3.25v180.4H186.23V3.25Zm113.71,60V22.61H168.9V79.88H120.71ZM168.9,93.52H126l5.67,6.6H168.9v7.11H137.76l.9,1,4.78,5.41H168.9v7.11H149.73q2.88,3.27,5.78,6.53H168.9V142.4h0v1h0V166H128.25l-33.07-38.7H24.34V120.8H89.6l-6.07-7.11H24.34v-6.53H78l-6.08-7.11H24.34V93.52h42l-6.07-7.11H24.34V79.88H54.67L24.34,44.36V22.61H65l55.73,64.8v-1H168.9Z"/><path class="cls-1" d="M289.8,151.63q-3.8-6.37-8.71-14.31t-10.6-16.46q-5.69-8.52-11.8-17.32t-12.15-17q-6-8.19-11.72-15.43T224.3,58.39v93.24H207.93V32.19H221.2q8.1,8.63,17.32,20.08t18.27,23.61q9,12.15,17.06,23.87t13.53,20.86V32.19h16.38V151.63Z"/><path class="cls-1" d="M393.72,62A451.6,451.6,0,0,1,378,110.27q-9,23.08-17.49,41.36H346q-8.44-18.27-17.49-41.36A452,452,0,0,1,312.72,62H330q2.07,8.44,4.91,18t6,19q3.18,9.39,6.46,18.18t6.2,15.68q2.94-6.89,6.21-15.68T366.23,99q3.19-9.39,6-19t4.92-18Z"/><path class="cls-1" d="M394.24,107a57,57,0,0,1,3.45-20.77,43.14,43.14,0,0,1,9.13-14.73,36.86,36.86,0,0,1,13.1-8.79,40.81,40.81,0,0,1,15.16-2.93q18.1,0,27.75,11.29t9.65,34.38v2.67a23.21,23.21,0,0,1-.17,3H411q1,14,8.1,21.2t22.06,7.24a58.63,58.63,0,0,0,14.22-1.47,52,52,0,0,0,8.7-2.84l2.24,13.44A47.78,47.78,0,0,1,456,152a73.23,73.23,0,0,1-16.63,1.73q-11.72,0-20.25-3.54a37.65,37.65,0,0,1-14-9.73,39.74,39.74,0,0,1-8.19-14.74A62.49,62.49,0,0,1,394.24,107Zm61.53-8.79q.17-10.86-5.43-17.84t-15.43-7a21.08,21.08,0,0,0-9.74,2.16,23.21,23.21,0,0,0-7.15,5.6,26,26,0,0,0-4.57,7.93,39.27,39.27,0,0,0-2.15,9.13Z"/><path class="cls-1" d="M507.81,140.08q9.82,0,14.57-2.58a8.74,8.74,0,0,0,4.74-8.28,11,11,0,0,0-4.66-9.3q-4.65-3.45-15.33-7.76-5.17-2.07-9.91-4.22a34.85,34.85,0,0,1-8.19-5.09,22.09,22.09,0,0,1-5.52-7.06,22.73,22.73,0,0,1-2.06-10.17q0-11.9,8.79-18.87t24-7a66.33,66.33,0,0,1,7.59.43c2.52.29,4.88.63,7.06,1a57.52,57.52,0,0,1,5.77,1.3c1.66.46,3,.86,3.88,1.2l-2.93,13.79a39.54,39.54,0,0,0-8.1-2.84,52,52,0,0,0-13.27-1.47,24.44,24.44,0,0,0-11.72,2.67,8.85,8.85,0,0,0-5,8.36,11.28,11.28,0,0,0,1.13,5.17,11.63,11.63,0,0,0,3.44,4,28,28,0,0,0,5.77,3.36q3.45,1.56,8.28,3.28,6.38,2.41,11.37,4.74a35.28,35.28,0,0,1,8.53,5.43,20.78,20.78,0,0,1,5.43,7.49,27.34,27.34,0,0,1,1.9,10.77q0,12.42-9.22,18.79t-26.29,6.38q-11.88,0-18.61-2a91.9,91.9,0,0,1-9.13-3L483,134.91c1.83.69,4.76,1.73,8.79,3.1S501.15,140.08,507.81,140.08Z"/><path class="cls-1" d="M570.2,62h33.95V75.45H570.2v41.37a49.31,49.31,0,0,0,1,11.11,16.61,16.61,0,0,0,3.1,6.9,11.23,11.23,0,0,0,5.17,3.53,22.75,22.75,0,0,0,7.24,1,34.22,34.22,0,0,0,11.63-1.63c2.93-1.09,5-1.86,6.12-2.33l3.1,13.27a60.05,60.05,0,0,1-8.44,3,47.94,47.94,0,0,1-13.79,1.81q-9.14,0-15.08-2.32a21.94,21.94,0,0,1-9.57-7,27.83,27.83,0,0,1-5.08-11.46,75.2,75.2,0,0,1-1.42-15.7V37l16-2.76Z"/><path class="cls-1" d="M649.14,152.66q-3.63,0-7.84-.17c-2.82-.12-5.63-.29-8.45-.52s-5.6-.51-8.36-.86a61.17,61.17,0,0,1-7.58-1.38V33.92a61.17,61.17,0,0,1,7.58-1.38c2.76-.35,5.54-.63,8.36-.87s5.6-.4,8.36-.51S646.55,31,649,31a113.46,113.46,0,0,1,19.39,1.55A48.79,48.79,0,0,1,684,37.79a28.48,28.48,0,0,1,10.42,9.74q3.8,6,3.8,14.82,0,9.83-4.66,16.12a28,28,0,0,1-12.41,9.39q10.51,3.11,16.72,9.82t6.21,19q0,17.92-13.19,27T649.14,152.66ZM633.45,82.52H651a76.67,76.67,0,0,0,11.72-.86,28.84,28.84,0,0,0,9.57-3.11,17.32,17.32,0,0,0,6.37-5.86A16.53,16.53,0,0,0,681,63.56a15,15,0,0,0-2.41-8.7A17.49,17.49,0,0,0,672,49.17,35.49,35.49,0,0,0,662.06,46,67.7,67.7,0,0,0,650,45c-4.25,0-7.59,0-10,.17s-4.59.29-6.55.52Zm0,13.44v42c1.27.12,2.76.24,4.48.35,1.5.12,3.25.2,5.26.26s4.34.08,7,.08a100.09,100.09,0,0,0,14-.94,39.61,39.61,0,0,0,11.63-3.36,20.46,20.46,0,0,0,8-6.73,18.54,18.54,0,0,0,3-10.85,20.19,20.19,0,0,0-2.24-9.91,16.67,16.67,0,0,0-6.46-6.47A30.74,30.74,0,0,0,668.1,97,75.61,75.61,0,0,0,655,96Z"/><path class="cls-1" d="M747,59.77a46.49,46.49,0,0,1,16.29,2.5A26.35,26.35,0,0,1,774,69.33a27,27,0,0,1,5.78,10.86,53.2,53.2,0,0,1,1.72,13.87v56l-5.78.95c-2.47.4-5.26.77-8.35,1.12s-6.47.66-10.09.94-7.21.43-10.77.43a58.41,58.41,0,0,1-14-1.55,31.17,31.17,0,0,1-11-4.91,22.56,22.56,0,0,1-7.24-8.87,31.19,31.19,0,0,1-2.58-13.27,25.65,25.65,0,0,1,3-12.76,24.08,24.08,0,0,1,8.19-8.62A37.85,37.85,0,0,1,735,98.72a65.86,65.86,0,0,1,14.48-1.55,49.1,49.1,0,0,1,5,.26c1.72.17,3.36.4,4.91.69s2.9.54,4,.77,2,.4,2.41.52V94.93a35.6,35.6,0,0,0-.86-7.84,18,18,0,0,0-3.1-6.9,15.52,15.52,0,0,0-6.12-4.82,24,24,0,0,0-10.08-1.81,75,75,0,0,0-13.87,1.12A48.65,48.65,0,0,0,722.9,77L721,63.73a49.19,49.19,0,0,1,10.33-2.67A89.49,89.49,0,0,1,747,59.77Zm1.38,80.31c3.79,0,7.15-.08,10.08-.26a42,42,0,0,0,7.32-.95V112.16a20.47,20.47,0,0,0-5.6-1.46,62.76,62.76,0,0,0-9.39-.61,61.5,61.5,0,0,0-7.67.52,23.39,23.39,0,0,0-7.41,2.15,16,16,0,0,0-5.6,4.49,11.75,11.75,0,0,0-2.24,7.49q0,8.63,5.51,12t15,3.34Z"/><path class="cls-1" d="M799.42,64.59q5.52-1.38,14.65-2.93a127.33,127.33,0,0,1,21-1.55q10.68,0,17.75,3a27.8,27.8,0,0,1,11.29,8.44,32.77,32.77,0,0,1,5.94,13,75.09,75.09,0,0,1,1.73,16.71v50.33h-16V104.75a77,77,0,0,0-1.12-14.13A24,24,0,0,0,851,81.14a14.77,14.77,0,0,0-6.89-5.26,30.36,30.36,0,0,0-10.69-1.63c-1.72,0-3.5,0-5.34.17s-3.59.26-5.26.43-3.16.37-4.48.6-2.27.41-2.84.52v75.66h-16Z"/><path class="cls-1" d="M922.13,102.34a107.22,107.22,0,0,1,10.94,9.82q5.77,5.86,11.38,12.67t10.6,13.79a153.65,153.65,0,0,1,8.44,13H944.71a142.56,142.56,0,0,0-8.36-12.32q-4.74-6.3-9.91-12.07a144.11,144.11,0,0,0-10.52-10.6,97.77,97.77,0,0,0-10.16-8.1v43.09h-16v-131l16-2.75V99.58l9.13-9.13q5-5,9.83-10.17t9.13-9.91q4.3-4.74,7.41-8.36H960q-4,4.31-8.61,9.48t-9.65,10.43q-5,5.25-10.09,10.51T922.13,102.34Z"/></svg>